<?xml version="1.0" encoding="utf-8"?>
<svg height="800px" width="800px" version="1.1" id="Capa_1" viewBox="0 0 47.539 47.539" xmlns="http://www.w3.org/2000/svg">
  <g>
    <g>
      <path style="fill:#010002;" d="M24.997,47.511C11.214,47.511,0,36.298,0,22.515C0,12.969,5.314,4.392,13.869,0.132 c0.385-0.191,0.848-0.117,1.151,0.186s0.381,0.766,0.192,1.15C13.651,4.64,12.86,8.05,12.86,11.601 c0,12.681,10.316,22.997,22.997,22.997c3.59,0,7.033-0.809,10.236-2.403c0.386-0.191,0.848-0.117,1.151,0.186 c0.304,0.303,0.381,0.766,0.192,1.15C43.196,42.153,34.597,47.511,24.997,47.511z M12.248,3.372C5.862,7.608,2,14.709,2,22.515 c0,12.68,10.316,22.996,22.997,22.996c7.854,0,14.981-3.898,19.207-10.343c-2.668,0.95-5.464,1.43-8.346,1.43 c-13.783,0-24.997-11.214-24.997-24.997C10.861,8.761,11.327,6.005,12.248,3.372z"/>
    </g>
  </g>
  <rect x="6.525" y="26.826" width="5.004" height="5.132" style="fill: rgb(216, 216, 216); stroke: rgb(0, 0, 0);"/>
  <rect x="14.031" y="33.306" width="6.159" height="4.747" style="fill: rgb(216, 216, 216); stroke: rgb(0, 0, 0);"/>
  <ellipse style="stroke: rgb(0, 0, 0);" cx="8.033" cy="13.226" rx="2.983" ry="5.196"/>
  <ellipse style="stroke: rgb(0, 0, 0);" cx="9.155" cy="8.222" rx="1.925" ry="2.63"/>
  <ellipse style="stroke: rgb(0, 0, 0);" cx="11.048" cy="5.304" rx="1.379" ry="2.47"/>
  <ellipse style="stroke: rgb(0, 0, 0);" cx="9.669" cy="23.138" rx="4.17" ry="7.153"/>
  <ellipse style="stroke: rgb(0, 0, 0);" cx="10.31" cy="16.017" rx="1.155" ry="1.957"/>
  <ellipse style="stroke: rgb(0, 0, 0);" cx="5.242" cy="15.311" rx="2.502" ry="4.138"/>
  <ellipse style="stroke: rgb(0, 0, 0);" cx="5.242" cy="20.989" rx="3.657" ry="5.838"/>
  <ellipse style="stroke: rgb(0, 0, 0);" cx="7.616" cy="26.409" rx="5.838" ry="8.693"/>
  <ellipse style="stroke: rgb(0, 0, 0);" cx="14.448" cy="33.274" rx="7.025" ry="5.485"/>
  <ellipse style="stroke: rgb(0, 0, 0);" cx="12.78" cy="36.61" rx="3.24" ry="6.447"/>
  <ellipse style="stroke: rgb(0, 0, 0);" cx="8.738" cy="34.364" rx="2.726" ry="3.945"/>
  <ellipse style="stroke: rgb(0, 0, 0);" cx="9.797" cy="37.476" rx="1.925" ry="1.86"/>
  <ellipse style="stroke: rgb(0, 0, 0);" cx="14.608" cy="26.923" rx="2.309" ry="2.791"/>
  <ellipse style="stroke: rgb(0, 0, 0);" cx="21.216" cy="36.289" rx="6.864" ry="4.459"/>
  <ellipse style="stroke: rgb(0, 0, 0);" cx="26.38" cy="40.266" rx="14.53" ry="2.149"/>
  <ellipse style="stroke: rgb(0, 0, 0);" cx="22.467" cy="41.87" rx="10.553" ry="1.508"/>
  <ellipse style="stroke: rgb(0, 0, 0);" cx="22.499" cy="42.768" rx="7.442" ry="3.047"/>
  <ellipse style="fill: rgb(216, 216, 216); stroke: rgb(0, 0, 0);" cx="30.005" cy="42.993" rx="5.196" ry="0.962"/>
  <ellipse style="stroke: rgb(0, 0, 0);" cx="29.588" cy="43.442" rx="3.496" ry="2.823"/>
  <ellipse style="stroke: rgb(0, 0, 0);" cx="33.822" cy="42.672" rx="3.24" ry="1.283"/>
  <ellipse style="stroke: rgb(0, 0, 0);" cx="32.539" cy="38.342" rx="7.538" ry="1.957"/>
  <ellipse style="stroke: rgb(0, 0, 0);" cx="28.914" cy="37.187" rx="3.592" ry="2.149"/>
  <ellipse style="fill: rgb(216, 216, 216); stroke: rgb(0, 0, 0);" cx="39.692" cy="38.566" rx="2.117" ry="1.54"/>
  <ellipse style="stroke: rgb(0, 0, 0);" cx="39.275" cy="37.219" rx="2.662" ry="1.86"/>
  <ellipse style="stroke: rgb(0, 0, 0);" cx="42.386" cy="36.449" rx="2.181" ry="1.732"/>
  <ellipse style="stroke: rgb(0, 0, 0);" cx="39.403" cy="38.823" rx="0.609" ry="1.091"/>
  <ellipse style="fill: rgb(216, 216, 216); stroke: rgb(0, 0, 0);" cx="40.622" cy="38.951" rx="0.225" ry="0.834"/>
  <ellipse style="fill: rgb(216, 216, 216); stroke: rgb(0, 0, 0);" cx="40.622" cy="39.881" rx="0.225" ry="0.609"/>
  <ellipse style="fill: rgb(216, 216, 216); stroke: rgb(0, 0, 0);"/>
  <ellipse style="fill: rgb(216, 216, 216); stroke: rgb(0, 0, 0);"/>
</svg>